<svg width="702" height="102" viewBox="0 0 702 102" fill="none" xmlns="http://www.w3.org/2000/svg">
<path d="M134.815 3.68923L112.264 53.0178L89.7777 3.69324C88.9825 1.9421 86.894 0.780029 84.5537 0.780029H72.2488C69.9136 0.780029 67.8301 1.9421 67.0299 3.68923L44.4179 53.0218L21.8714 3.69324C21.0712 1.94611 18.9876 0.784016 16.6525 0.784016H4.12103C1.71036 0.784016 0.0344727 2.69144 0.859837 4.49468L33.044 74.9051C33.8442 76.6522 35.9277 77.8143 38.2629 77.8143H50.5679C52.903 77.8143 54.9916 76.6522 55.7868 74.9051L78.3333 25.5765L100.88 74.9051C101.68 76.6522 103.764 77.8143 106.099 77.8143H118.404C120.739 77.8143 122.827 76.6522 123.623 74.9051L155.807 4.49468C156.632 2.69144 154.956 0.784016 152.546 0.784016H140.019C137.699 0.780009 135.616 1.9421 134.815 3.68923Z" fill="black"/>
<path d="M232.493 74.0997L200.308 3.68923C199.508 1.9421 197.425 0.780029 195.089 0.780029H182.784C180.449 0.780029 178.361 1.9421 177.565 3.68923L145.381 74.0997C144.556 75.903 146.231 77.8104 148.642 77.8104H161.169C163.504 77.8104 165.592 76.6483 166.388 74.9012L169.624 67.8245V67.8284L188.939 25.5765L208.255 67.8284V67.8245L211.491 74.9012C212.291 76.6483 214.375 77.8104 216.71 77.8104H229.236C231.642 77.8104 233.318 75.903 232.493 74.0997Z" fill="black"/>
<path d="M272.678 61.7896V3.54498C272.678 2.01824 271.123 0.780029 269.206 0.780029H256.392C254.475 0.780029 252.92 2.01824 252.92 3.54498V75.0454C252.92 76.5722 254.475 77.8104 256.392 77.8104H317.132C319.05 77.8104 320.605 76.5722 320.605 75.0454V67.3236C320.605 65.7968 319.05 64.5586 317.132 64.5586H276.151C274.233 64.5546 272.678 63.3164 272.678 61.7896Z" fill="black"/>
<path d="M359.629 61.7896V3.54498C359.629 2.01824 358.074 0.780029 356.157 0.780029H343.343C341.426 0.780029 339.871 2.01824 339.871 3.54498V75.0454C339.871 76.5722 341.426 77.8104 343.343 77.8104H404.083C406.001 77.8104 407.556 76.5722 407.556 75.0454V67.3236C407.556 65.7968 406.001 64.5586 404.083 64.5586H363.102C361.184 64.5546 359.629 63.3164 359.629 61.7896Z" fill="black"/>
<path d="M514.156 74.0997L481.972 3.68923C481.172 1.9421 479.088 0.780029 476.753 0.780029H464.448C462.113 0.780029 460.024 1.9421 459.229 3.68923L427.045 74.0997C426.219 75.9029 427.895 77.8103 430.306 77.8103H442.832C445.167 77.8103 447.256 76.6482 448.056 74.9011L451.292 67.8244V67.8284L470.608 25.5765L489.924 67.8284V67.8244L493.139 74.861C493.95 76.6322 496.069 77.8143 498.434 77.8143H510.905C513.306 77.8103 514.982 75.9029 514.156 74.0997Z" fill="black"/>
<path d="M701.376 3.54899C701.376 2.02225 699.82 0.784016 697.903 0.784016H645V0.780029H625.231C623.314 0.780029 621.759 2.01824 621.759 3.54498V11.2749C621.759 12.8016 623.314 14.0398 625.231 14.0398H648.054C649.972 14.0398 651.527 15.2781 651.527 16.8048L651.522 75.0454C651.522 76.5722 653.077 77.8104 654.994 77.8104H668.135C670.052 77.8104 671.607 76.5722 671.607 75.0454L671.617 16.8048C671.617 15.2781 673.173 14.0398 675.09 14.0398H697.908C699.826 14.0398 701.381 12.8016 701.381 11.2749V3.54899H701.376Z" fill="black"/>
<path d="M607.72 38.8524C611.128 35.2179 612.834 30.6537 612.834 25.1598C612.834 17.2215 609.562 11.1707 603.025 7.01523C596.487 2.85976 587.559 0.780029 576.261 0.780029H537.493C535.576 0.780029 534.021 2.01824 534.021 3.54498L534.016 75.0454C534.016 76.5722 535.571 77.8104 537.488 77.8104H550.629C552.546 77.8104 554.101 76.5722 554.101 75.0454L554.106 51.7756C554.106 50.2529 555.631 49.0187 557.544 49.0107C562.486 48.9946 571.479 48.9626 575.803 48.9345C577.272 48.9265 578.581 49.6518 579.084 50.7498L590.458 75.6265C591.057 76.9368 592.622 77.8104 594.373 77.8104H607.871C610.282 77.8104 611.958 75.903 611.133 74.0997L597.997 45.3641C601.887 43.7612 605.139 41.6053 607.72 38.8524ZM554.106 15.8992C554.106 14.3724 555.662 13.1342 557.579 13.1342H575.838C581.631 13.1342 585.903 14.1921 588.656 16.3079C591.409 18.4237 592.793 21.337 592.793 25.0476C592.793 28.7623 591.389 31.6354 588.586 33.6791C585.783 35.7188 581.53 36.7406 575.833 36.7406H557.574C555.657 36.7406 554.101 35.5024 554.101 33.9756L554.106 15.8992Z" fill="black"/>
<path d="M633.211 101.585C633.06 101.585 632.929 101.541 632.813 101.453C632.698 101.361 632.647 101.257 632.647 101.136V90.3209C632.647 90.2007 632.703 90.0885 632.813 90.0044C632.929 89.9122 633.06 89.8721 633.211 89.8721H639.265C640.584 89.8721 641.761 90.0484 642.793 90.3971C643.835 90.7497 644.66 91.2707 645.289 91.9439C645.908 92.6251 646.246 93.4666 646.286 94.4724C646.316 94.9533 646.331 95.374 646.331 95.7347C646.331 96.0993 646.316 96.5081 646.286 96.9649C646.231 98.0148 645.908 98.8843 645.32 99.5696C644.731 100.259 643.926 100.764 642.909 101.092C641.897 101.421 640.71 101.585 639.371 101.585H633.211V101.585ZM637.906 98.3233H639.27C639.577 98.3233 639.854 98.2752 640.096 98.1751C640.342 98.0829 640.549 97.9306 640.7 97.7302C640.851 97.5299 640.936 97.2734 640.951 96.9609C640.976 96.6363 640.997 96.3438 641.007 96.0873C641.007 95.8308 641.007 95.5744 641.007 95.3139C640.997 95.0535 640.976 94.7649 640.951 94.4684C640.921 93.9996 640.735 93.659 640.393 93.4426C640.05 93.2342 639.633 93.126 639.16 93.126H637.906V98.3233V98.3233Z" fill="black"/>
<path d="M661.05 101.585C660.899 101.585 660.768 101.541 660.653 101.453C660.537 101.361 660.486 101.257 660.486 101.136V90.3209C660.486 90.2007 660.542 90.0885 660.653 90.0044C660.768 89.9122 660.899 89.8721 661.05 89.8721H668.03C669.379 89.8721 670.471 90.0004 671.332 90.2608C672.187 90.5213 672.816 90.914 673.229 91.439C673.642 91.9559 673.848 92.605 673.848 93.3824C673.848 93.7431 673.757 94.0637 673.566 94.3442C673.38 94.6287 673.154 94.8691 672.902 95.0575C672.64 95.2458 672.399 95.386 672.172 95.4782C672.701 95.6545 673.169 95.9671 673.566 96.4039C673.974 96.8447 674.17 97.3416 674.17 97.9026C674.17 98.7361 673.934 99.4253 673.476 99.9703C673.018 100.511 672.343 100.916 671.468 101.184C670.587 101.453 669.515 101.585 668.237 101.585H661.05V101.585ZM665.74 94.268H667.502C667.809 94.268 668.03 94.1879 668.166 94.0236C668.297 93.8633 668.368 93.695 668.368 93.5107C668.368 93.3344 668.297 93.1621 668.166 92.9938C668.03 92.8295 667.809 92.7453 667.502 92.7453H665.74V94.268ZM665.74 98.708H667.693C668.045 98.708 668.292 98.6159 668.438 98.4275C668.589 98.2432 668.659 98.0629 668.659 97.8865C668.659 97.6862 668.584 97.5019 668.423 97.3255C668.262 97.1532 668.015 97.0691 667.693 97.0691H665.74V98.708Z" fill="black"/>
<path d="M694.785 101.75C693.23 101.75 691.946 101.586 690.935 101.249C689.933 100.913 689.173 100.476 688.67 99.9268C688.167 99.3778 687.895 98.8008 687.865 98.1877C687.865 98.0835 687.91 97.9993 688.001 97.9272C688.091 97.8551 688.202 97.819 688.328 97.819H692.324C692.545 97.819 692.716 97.8431 692.837 97.8992C692.953 97.9472 693.084 98.0153 693.23 98.1075C693.366 98.1877 693.512 98.2558 693.657 98.3159C693.803 98.376 693.97 98.4241 694.161 98.4481C694.352 98.4802 694.558 98.4922 694.78 98.4922C695.253 98.4922 695.635 98.4481 695.927 98.364C696.209 98.2838 696.355 98.1676 696.355 98.0234C696.355 97.8911 696.27 97.7789 696.108 97.6868C695.947 97.6026 695.671 97.5145 695.283 97.4423C694.885 97.3702 694.342 97.3021 693.642 97.2339C692.53 97.1137 691.574 96.9054 690.754 96.6128C689.943 96.3243 689.314 95.9236 688.876 95.4187C688.433 94.9138 688.212 94.2926 688.212 93.5513C688.212 92.7899 688.479 92.1248 689.022 91.5397C689.556 90.9587 690.311 90.5099 691.272 90.1853C692.228 89.8607 693.345 89.6964 694.624 89.6964C695.671 89.6964 696.607 89.8046 697.417 90.025C698.227 90.2454 698.917 90.5259 699.475 90.8785C700.034 91.2311 700.462 91.6038 700.754 92.0045C701.051 92.4053 701.207 92.79 701.222 93.1626C701.222 93.2588 701.176 93.347 701.086 93.4191C700.995 93.4912 700.895 93.5273 700.779 93.5273H696.576C696.375 93.5273 696.224 93.5072 696.103 93.4592C695.988 93.4151 695.867 93.351 695.736 93.2588C695.666 93.2027 695.535 93.1426 695.343 93.0705C695.157 92.9983 694.916 92.9623 694.624 92.9623C694.271 92.9623 694.01 93.0063 693.849 93.0825C693.688 93.1666 693.612 93.2828 693.612 93.4311C693.612 93.5273 693.673 93.6275 693.803 93.7116C693.924 93.8038 694.156 93.8839 694.493 93.948C694.83 94.0162 695.313 94.0803 695.947 94.1484C697.346 94.2806 698.474 94.497 699.314 94.7936C700.165 95.0861 700.784 95.4828 701.166 95.9717C701.549 96.4646 701.75 97.0697 701.75 97.795C701.75 98.6124 701.443 99.3137 700.829 99.9028C700.215 100.496 699.39 100.953 698.343 101.269C697.301 101.59 696.113 101.75 694.785 101.75Z" fill="black"/>
<path d="M0.700406 101.585H618.902C618.932 101.585 618.962 101.565 618.962 101.537V89.912C618.962 89.888 618.937 89.864 618.902 89.864H0.700406C0.67021 89.864 0.640015 89.884 0.640015 89.912V101.537C0.645047 101.565 0.67021 101.585 0.700406 101.585Z" fill="black"/>
</svg>
