<svg width="501" height="92" viewBox="0 0 501 92" fill="none" xmlns="http://www.w3.org/2000/svg">
<path d="M96.3986 3.35422L80.3043 47.851L64.2566 3.35784C63.6891 1.77822 62.1986 0.72998 60.5285 0.72998H51.7468C50.0803 0.72998 48.5933 1.77822 48.0222 3.35422L31.8848 47.8547L15.7941 3.35784C15.223 1.78184 13.736 0.733577 12.0695 0.733577H3.1262C1.40578 0.733577 0.209755 2.45417 0.798791 4.08078L23.7676 67.5945C24.3387 69.1705 25.8256 70.2187 27.4922 70.2187H36.2738C37.9404 70.2187 39.4309 69.1705 39.9984 67.5945L56.0891 23.0976L72.1799 67.5945C72.751 69.1705 74.2379 70.2187 75.9044 70.2187H84.6861C86.3527 70.2187 87.8432 69.1705 88.4107 67.5945L111.379 4.08078C111.969 2.45417 110.772 0.733577 109.052 0.733577H100.112C98.4566 0.729962 96.9697 1.77822 96.3986 3.35422Z" fill="#5AB9A5"/>
<path d="M166.107 66.868L143.139 3.35423C142.568 1.77822 141.081 0.72998 139.414 0.72998H130.632C128.966 0.72998 127.475 1.77822 126.908 3.35423L103.939 66.868C103.35 68.4946 104.546 70.2152 106.266 70.2152H115.206C116.873 70.2152 118.363 69.1669 118.931 67.5909L121.24 61.2074V61.211L135.025 23.0977L148.81 61.211V61.2074L151.119 67.5909C151.69 69.1669 153.177 70.2152 154.844 70.2152H163.784C165.5 70.2152 166.696 68.4946 166.107 66.868Z" fill="#5AB9A5"/>
<path d="M194.789 55.7637V3.2241C194.789 1.84691 193.679 0.72998 192.311 0.72998H183.166C181.798 0.72998 180.688 1.84691 180.688 3.2241V67.721C180.688 69.0982 181.798 70.2152 183.166 70.2152H226.514C227.883 70.2152 228.992 69.0982 228.992 67.721V60.7555C228.992 59.3783 227.883 58.2614 226.514 58.2614H197.267C195.899 58.2578 194.789 57.1409 194.789 55.7637Z" fill="#5AB9A5"/>
<path d="M256.84 55.7637V3.2241C256.84 1.84691 255.73 0.72998 254.361 0.72998H245.217C243.848 0.72998 242.739 1.84691 242.739 3.2241V67.721C242.739 69.0982 243.848 70.2152 245.217 70.2152H288.565C289.933 70.2152 291.043 69.0982 291.043 67.721V60.7555C291.043 59.3783 289.933 58.2614 288.565 58.2614H259.318C257.949 58.2578 256.84 57.1409 256.84 55.7637Z" fill="#5AB9A5"/>
<path d="M367.118 66.8679L344.15 3.35422C343.578 1.77822 342.092 0.72998 340.425 0.72998H331.643C329.977 0.72998 328.486 1.77822 327.919 3.35422L304.95 66.8679C304.361 68.4945 305.557 70.2151 307.277 70.2151H316.217C317.884 70.2151 319.374 69.1668 319.945 67.5908L322.255 61.2073V61.2109L336.04 23.0976L349.824 61.2109V61.2073L352.119 67.5547C352.698 69.1524 354.21 70.2187 355.898 70.2187H364.798C366.511 70.2151 367.707 68.4945 367.118 66.8679Z" fill="#0054A7"/>
<path d="M500.732 3.22772C500.732 1.85053 499.622 0.733577 498.254 0.733577H460.498V0.72998H446.39C445.022 0.72998 443.912 1.84691 443.912 3.2241V10.1968C443.912 11.574 445.022 12.691 446.39 12.691H462.679C464.047 12.691 465.157 13.8079 465.157 15.1851L465.153 67.721C465.153 69.0982 466.263 70.2152 467.631 70.2152H477.009C478.378 70.2152 479.487 69.0982 479.487 67.721L479.495 15.1851C479.495 13.8079 480.604 12.691 481.973 12.691H498.257C499.626 12.691 500.735 11.574 500.735 10.1968V3.22772H500.732Z" fill="#0054A7"/>
<path d="M433.893 35.0731C436.324 31.7946 437.542 27.6775 437.542 22.7217C437.542 15.561 435.207 10.1029 430.542 6.35444C425.876 2.606 419.505 0.72998 411.441 0.72998H383.774C382.406 0.72998 381.296 1.84691 381.296 3.2241L381.292 67.721C381.292 69.0982 382.402 70.2152 383.771 70.2152H393.149C394.517 70.2152 395.627 69.0982 395.627 67.721L395.631 46.7305C395.631 45.3569 396.719 44.2436 398.084 44.2364C401.611 44.2219 408.029 44.193 411.114 44.1677C412.163 44.1605 413.097 44.8147 413.456 45.8052L421.573 68.2452C422.001 69.4272 423.118 70.2152 424.368 70.2152H434.001C435.721 70.2152 436.917 68.4946 436.328 66.868L426.954 40.947C429.73 39.5011 432.05 37.5564 433.893 35.0731ZM395.631 14.3682C395.631 12.991 396.74 11.8741 398.109 11.8741H411.139C415.273 11.8741 418.323 12.8284 420.287 14.7369C422.252 16.6455 423.24 19.2733 423.24 22.6205C423.24 25.9714 422.238 28.5631 420.237 30.4066C418.237 32.2465 415.202 33.1682 411.136 33.1682H398.105C396.737 33.1682 395.627 32.0513 395.627 30.6741L395.631 14.3682Z" fill="#0054A7"/>
<path d="M452.083 91.6612C451.975 91.6612 451.882 91.6214 451.799 91.5419C451.716 91.4588 451.681 91.3648 451.681 91.2563V81.5003C451.681 81.3918 451.72 81.2906 451.799 81.2147C451.882 81.1316 451.975 81.0954 452.083 81.0954H456.404C457.345 81.0954 458.185 81.2545 458.921 81.569C459.665 81.887 460.254 82.357 460.703 82.9642C461.144 83.5787 461.385 84.3378 461.414 85.2451C461.435 85.6789 461.446 86.0584 461.446 86.3837C461.446 86.7127 461.435 87.0814 461.414 87.4934C461.374 88.4405 461.145 89.2249 460.724 89.843C460.304 90.4647 459.729 90.9202 459.004 91.2166C458.282 91.513 457.434 91.6612 456.479 91.6612H452.083V91.6612ZM455.434 88.7188H456.407C456.626 88.7188 456.824 88.6754 456.996 88.5851C457.172 88.5019 457.319 88.3646 457.427 88.1838C457.535 88.0031 457.596 87.7718 457.607 87.4898C457.625 87.197 457.639 86.9332 457.646 86.7018C457.646 86.4705 457.646 86.2391 457.646 86.0042C457.639 85.7692 457.625 85.509 457.607 85.2415C457.585 84.8186 457.452 84.5113 457.208 84.3161C456.964 84.1282 456.666 84.0306 456.328 84.0306H455.434V88.7188V88.7188Z" fill="#0054A7"/>
<path d="M471.954 91.6612C471.846 91.6612 471.752 91.6214 471.67 91.5419C471.587 91.4588 471.551 91.3648 471.551 91.2563V81.5003C471.551 81.3918 471.591 81.2906 471.67 81.2147C471.752 81.1316 471.846 81.0954 471.954 81.0954H476.935C477.898 81.0954 478.677 81.2111 479.291 81.4461C479.902 81.681 480.351 82.0353 480.645 82.5088C480.94 82.9751 481.087 83.5607 481.087 84.2619C481.087 84.5872 481.022 84.8764 480.886 85.1294C480.753 85.3861 480.591 85.6029 480.412 85.7728C480.225 85.9427 480.053 86.0692 479.891 86.1524C480.268 86.3114 480.602 86.5934 480.886 86.9874C481.177 87.385 481.317 87.8332 481.317 88.3393C481.317 89.0911 481.148 89.7129 480.821 90.2045C480.494 90.6924 480.013 91.0575 479.388 91.2997C478.76 91.5419 477.995 91.6612 477.082 91.6612H471.954V91.6612ZM475.301 85.0608H476.558C476.777 85.0608 476.935 84.9884 477.032 84.8402C477.126 84.6957 477.176 84.5438 477.176 84.3776C477.176 84.2185 477.126 84.0631 477.032 83.9113C476.935 83.7631 476.777 83.6872 476.558 83.6872H475.301V85.0608ZM475.301 89.0658H476.695C476.946 89.0658 477.122 88.9827 477.226 88.8128C477.334 88.6465 477.384 88.4839 477.384 88.3248C477.384 88.1441 477.33 87.9778 477.215 87.8188C477.1 87.6633 476.924 87.5874 476.695 87.5874H475.301V89.0658Z" fill="#0054A7"/>
<path d="M496.029 91.81C494.919 91.81 494.003 91.6618 493.282 91.3582C492.567 91.0545 492.024 90.6605 491.665 90.1653C491.306 89.6701 491.112 89.1496 491.091 88.5965C491.091 88.5025 491.123 88.4266 491.188 88.3616C491.252 88.2965 491.331 88.264 491.421 88.264H494.273C494.431 88.264 494.553 88.2857 494.639 88.3363C494.722 88.3797 494.815 88.4411 494.919 88.5242C495.016 88.5965 495.12 88.658 495.225 88.7122C495.329 88.7664 495.447 88.8098 495.584 88.8315C495.72 88.8604 495.868 88.8712 496.026 88.8712C496.363 88.8712 496.636 88.8315 496.845 88.7556C497.046 88.6833 497.15 88.5785 497.15 88.4483C497.15 88.329 497.089 88.2278 496.974 88.1447C496.859 88.0688 496.661 87.9893 496.385 87.9242C496.101 87.8591 495.713 87.7977 495.214 87.7362C494.42 87.6278 493.738 87.4398 493.152 87.1759C492.574 86.9157 492.125 86.5542 491.813 86.0988C491.496 85.6433 491.338 85.083 491.338 84.4143C491.338 83.7275 491.529 83.1275 491.917 82.5997C492.297 82.0756 492.836 81.6707 493.522 81.378C494.205 81.0852 495.002 80.937 495.914 80.937C496.661 80.937 497.329 81.0346 497.908 81.2334C498.486 81.4322 498.978 81.6852 499.377 82.0033C499.775 82.3214 500.081 82.6576 500.289 83.019C500.501 83.3805 500.612 83.7275 500.623 84.0637C500.623 84.1504 500.591 84.23 500.526 84.295C500.461 84.3601 500.389 84.3926 500.307 84.3926H497.308C497.164 84.3926 497.056 84.3745 496.97 84.3312C496.888 84.2914 496.801 84.2336 496.708 84.1504C496.658 84.0998 496.564 84.0456 496.428 83.9806C496.295 83.9155 496.123 83.8829 495.914 83.8829C495.663 83.8829 495.476 83.9227 495.361 83.9914C495.246 84.0673 495.192 84.1721 495.192 84.3059C495.192 84.3926 495.235 84.483 495.329 84.5589C495.415 84.642 495.58 84.7143 495.821 84.7722C496.061 84.8336 496.406 84.8915 496.859 84.9529C497.857 85.0722 498.662 85.2674 499.262 85.5349C499.869 85.7987 500.31 86.1566 500.583 86.5976C500.856 87.0422 501 87.588 501 88.2423C501 88.9797 500.781 89.6123 500.343 90.1436C499.905 90.6786 499.316 91.0907 498.568 91.3762C497.825 91.6654 496.977 91.81 496.029 91.81Z" fill="#0054A7"/>
<path d="M0.683114 91.6611H441.873C441.894 91.6611 441.916 91.643 441.916 91.6177V81.1315C441.916 81.1098 441.898 81.0881 441.873 81.0881H0.683114C0.661564 81.0881 0.640015 81.1062 0.640015 81.1315V91.6177C0.643606 91.643 0.661564 91.6611 0.683114 91.6611Z" fill="#0054A7"/>
</svg>
