<svg width="251" height="41" viewBox="0 0 251 41" fill="none" xmlns="http://www.w3.org/2000/svg">
<path d="M48.5578 1.88478L40.5047 21.4657L32.475 1.88637C32.1911 1.19126 31.4453 0.72998 30.6096 0.72998H26.2155C25.3817 0.72998 24.6376 1.19126 24.3519 1.88478L16.2773 21.4672L8.22598 1.88637C7.94023 1.19285 7.19621 0.731563 6.36233 0.731563H1.8874C1.02657 0.731563 0.428112 1.48871 0.722846 2.2045L12.2157 30.1538C12.5014 30.8473 13.2454 31.3086 14.0793 31.3086H18.4734C19.3073 31.3086 20.0531 30.8473 20.337 30.1538L28.3883 10.5729L36.4396 30.1538C36.7253 30.8473 37.4693 31.3086 38.3032 31.3086H42.6973C43.5312 31.3086 44.277 30.8473 44.5609 30.1538L56.0538 2.2045C56.3485 1.48871 55.75 0.731563 54.8892 0.731563H50.4161C49.5876 0.729972 48.8436 1.19126 48.5578 1.88478Z" fill="#5AB9A5"/>
<path d="M83.4339 29.8341L71.9411 1.88478C71.6554 1.19126 70.9114 0.72998 70.0775 0.72998H65.6835C64.8496 0.72998 64.1038 1.19126 63.8198 1.88478L52.327 29.8341C52.0323 30.5498 52.6308 31.307 53.4916 31.307H57.9647C58.7986 31.307 59.5444 30.8457 59.8283 30.1522L60.9839 27.3431V27.3447L67.8814 10.5729L74.7788 27.3447V27.3431L75.9344 30.1522C76.2202 30.8457 76.9642 31.307 77.7981 31.307H82.2712C83.1302 31.307 83.7287 30.5498 83.4339 29.8341Z" fill="#5AB9A5"/>
<path d="M97.7836 24.9476V1.82752C97.7836 1.22148 97.2282 0.72998 96.5435 0.72998H91.968C91.2832 0.72998 90.7279 1.22148 90.7279 1.82752V30.2094C90.7279 30.8155 91.2832 31.307 91.968 31.307H113.658C114.343 31.307 114.898 30.8155 114.898 30.2094V27.1443C114.898 26.5382 114.343 26.0467 113.658 26.0467H99.0236C98.3389 26.0451 97.7836 25.5536 97.7836 24.9476Z" fill="#5AB9A5"/>
<path d="M128.834 24.9476V1.82752C128.834 1.22148 128.279 0.72998 127.594 0.72998H123.018C122.334 0.72998 121.778 1.22148 121.778 1.82752V30.2094C121.778 30.8155 122.334 31.307 123.018 31.307H144.708C145.393 31.307 145.948 30.8155 145.948 30.2094V27.1443C145.948 26.5382 145.393 26.0467 144.708 26.0467H130.074C129.389 26.0451 128.834 25.5536 128.834 24.9476Z" fill="#5AB9A5"/>
<path d="M184.012 29.834L172.519 1.88478C172.233 1.19126 171.489 0.72998 170.655 0.72998H166.261C165.428 0.72998 164.682 1.19126 164.398 1.88478L152.905 29.834C152.61 30.5498 153.209 31.307 154.07 31.307H158.543C159.377 31.307 160.122 30.8457 160.408 30.1522L161.564 27.3431V27.3447L168.461 10.5729L175.359 27.3447V27.3431L176.507 30.1363C176.796 30.8393 177.553 31.3086 178.398 31.3086H182.851C183.708 31.307 184.307 30.5498 184.012 29.834Z" fill="#0054A7"/>
<path d="M250.872 1.82911C250.872 1.22308 250.316 0.731563 249.631 0.731563H230.74V0.72998H223.681C222.996 0.72998 222.441 1.22148 222.441 1.82752V4.89588C222.441 5.50191 222.996 5.99343 223.681 5.99343H231.831C232.516 5.99343 233.071 6.48494 233.071 7.09098L233.069 30.2094C233.069 30.8155 233.624 31.307 234.309 31.307H239.001C239.686 31.307 240.241 30.8155 240.241 30.2094L240.245 7.09098C240.245 6.48494 240.8 5.99343 241.485 5.99343H249.633C250.318 5.99343 250.873 5.50191 250.873 4.89588V1.82911H250.872Z" fill="#0054A7"/>
<path d="M217.428 15.8427C218.644 14.4 219.254 12.5883 219.254 10.4075C219.254 7.2564 218.085 4.85453 215.751 3.20503C213.416 1.55553 210.228 0.72998 206.194 0.72998H192.35C191.665 0.72998 191.11 1.22148 191.11 1.82752L191.108 30.2094C191.108 30.8155 191.663 31.307 192.348 31.307H197.041C197.725 31.307 198.281 30.8155 198.281 30.2094L198.282 20.9726C198.282 20.3681 198.827 19.8782 199.51 19.875C201.275 19.8686 204.486 19.8559 206.03 19.8448C206.555 19.8416 207.022 20.1295 207.202 20.5653L211.263 30.4401C211.477 30.9602 212.036 31.307 212.662 31.307H217.482C218.342 31.307 218.941 30.5498 218.646 29.8341L213.956 18.4275C215.345 17.7913 216.506 16.9355 217.428 15.8427ZM198.282 6.73149C198.282 6.12545 198.838 5.63394 199.523 5.63394H206.043C208.111 5.63394 209.637 6.05388 210.62 6.89374C211.603 7.7336 212.097 8.89 212.097 10.3629C212.097 11.8375 211.596 12.978 210.595 13.7892C209.594 14.5988 208.075 15.0045 206.041 15.0045H199.521C198.836 15.0045 198.281 14.5129 198.281 13.9069L198.282 6.73149Z" fill="#0054A7"/>
<path d="M226.527 40.7442C226.473 40.7442 226.427 40.7267 226.385 40.6917C226.344 40.6551 226.326 40.6138 226.326 40.566V36.2729C226.326 36.2252 226.346 36.1806 226.385 36.1472C226.427 36.1106 226.473 36.0947 226.527 36.0947H228.689C229.16 36.0947 229.581 36.1647 229.949 36.3031C230.321 36.4431 230.616 36.6499 230.84 36.9171C231.062 37.1875 231.182 37.5215 231.196 37.9208C231.207 38.1117 231.212 38.2787 231.212 38.4218C231.212 38.5666 231.207 38.7288 231.196 38.9102C231.177 39.3269 231.062 39.6721 230.851 39.9441C230.641 40.2177 230.353 40.4181 229.99 40.5485C229.629 40.679 229.205 40.7442 228.727 40.7442H226.527V40.7442ZM228.204 39.4494H228.691C228.801 39.4494 228.9 39.4303 228.986 39.3906C229.074 39.354 229.148 39.2935 229.201 39.214C229.255 39.1345 229.286 39.0327 229.291 38.9086C229.3 38.7797 229.308 38.6636 229.311 38.5618C229.311 38.46 229.311 38.3582 229.311 38.2548C229.308 38.1514 229.3 38.0369 229.291 37.9192C229.281 37.7331 229.214 37.5979 229.092 37.512C228.97 37.4293 228.82 37.3863 228.652 37.3863H228.204V39.4494V39.4494Z" fill="#0054A7"/>
<path d="M236.468 40.7442C236.414 40.7442 236.368 40.7267 236.326 40.6917C236.285 40.6551 236.267 40.6138 236.267 40.566V36.2729C236.267 36.2252 236.287 36.1806 236.326 36.1472C236.368 36.1106 236.414 36.0947 236.468 36.0947H238.961C239.443 36.0947 239.833 36.1456 240.14 36.249C240.445 36.3524 240.67 36.5083 240.817 36.7167C240.965 36.9219 241.038 37.1796 241.038 37.4881C241.038 37.6313 241.006 37.7586 240.938 37.8699C240.871 37.9828 240.79 38.0783 240.701 38.153C240.607 38.2278 240.521 38.2835 240.44 38.32C240.629 38.39 240.796 38.5141 240.938 38.6875C241.083 38.8625 241.153 39.0597 241.153 39.2824C241.153 39.6132 241.069 39.8868 240.905 40.1032C240.742 40.3179 240.501 40.4786 240.188 40.5851C239.874 40.6917 239.491 40.7442 239.035 40.7442H236.468V40.7442ZM238.143 37.8397H238.772C238.882 37.8397 238.961 37.8079 239.009 37.7426C239.056 37.679 239.081 37.6122 239.081 37.539C239.081 37.4691 239.056 37.4007 239.009 37.3338C238.961 37.2686 238.882 37.2352 238.772 37.2352H238.143V37.8397ZM238.143 39.6021H238.841C238.966 39.6021 239.054 39.5655 239.107 39.4908C239.16 39.4176 239.186 39.346 239.186 39.276C239.186 39.1965 239.159 39.1233 239.101 39.0533C239.044 38.9849 238.956 38.9515 238.841 38.9515H238.143V39.6021Z" fill="#0054A7"/>
<path d="M248.513 40.81C247.957 40.81 247.499 40.7448 247.138 40.6112C246.78 40.4776 246.509 40.3042 246.329 40.0863C246.149 39.8684 246.052 39.6393 246.042 39.3959C246.042 39.3546 246.058 39.3212 246.09 39.2925C246.122 39.2639 246.162 39.2496 246.207 39.2496H247.634C247.713 39.2496 247.774 39.2591 247.817 39.2814C247.858 39.3005 247.905 39.3275 247.957 39.3641C248.006 39.3959 248.058 39.423 248.11 39.4468C248.162 39.4707 248.221 39.4898 248.29 39.4993C248.358 39.5121 248.432 39.5168 248.511 39.5168C248.68 39.5168 248.816 39.4993 248.921 39.4659C249.021 39.4341 249.073 39.388 249.073 39.3307C249.073 39.2782 249.043 39.2337 248.985 39.1971C248.928 39.1637 248.829 39.1287 248.691 39.1001C248.549 39.0714 248.354 39.0444 248.105 39.0174C247.707 38.9696 247.366 38.8869 247.073 38.7708C246.784 38.6563 246.559 38.4972 246.403 38.2968C246.245 38.0964 246.165 37.8498 246.165 37.5555C246.165 37.2533 246.261 36.9893 246.455 36.757C246.645 36.5264 246.915 36.3482 247.258 36.2194C247.6 36.0906 247.999 36.0253 248.455 36.0253C248.829 36.0253 249.163 36.0683 249.453 36.1558C249.742 36.2433 249.988 36.3546 250.188 36.4946C250.387 36.6346 250.54 36.7825 250.644 36.9415C250.75 37.1006 250.806 37.2533 250.811 37.4013C250.811 37.4394 250.795 37.4744 250.763 37.5031C250.73 37.5317 250.694 37.546 250.653 37.546H249.152C249.081 37.546 249.027 37.538 248.983 37.519C248.942 37.5015 248.899 37.476 248.852 37.4394C248.827 37.4172 248.78 37.3933 248.712 37.3647C248.646 37.336 248.559 37.3217 248.455 37.3217C248.329 37.3217 248.236 37.3392 248.178 37.3694C248.121 37.4028 248.094 37.449 248.094 37.5078C248.094 37.546 248.115 37.5858 248.162 37.6192C248.205 37.6558 248.288 37.6876 248.408 37.713C248.529 37.7401 248.701 37.7655 248.928 37.7926C249.427 37.845 249.83 37.9309 250.13 38.0487C250.434 38.1648 250.655 38.3222 250.791 38.5163C250.928 38.712 251 38.9521 251 39.2401C251 39.5645 250.89 39.8429 250.671 40.0767C250.452 40.3122 250.157 40.4935 249.783 40.6191C249.411 40.7464 248.987 40.81 248.513 40.81Z" fill="#0054A7"/>
<path d="M0.66158 40.7448H221.42C221.43 40.7448 221.441 40.7369 221.441 40.7257V36.1113C221.441 36.1017 221.432 36.0922 221.42 36.0922H0.66158C0.650797 36.0922 0.640015 36.1001 0.640015 36.1113V40.7257C0.641812 40.7369 0.650797 40.7448 0.66158 40.7448Z" fill="#0054A7"/>
</svg>
