<?xml version="1.0" encoding="utf-8"?>
<!-- Generator: Adobe Illustrator 24.1.2, SVG Export Plug-In . SVG Version: 6.00 Build 0)  -->
<svg version="1.1" id="Шар_1" xmlns="http://www.w3.org/2000/svg" xmlns:xlink="http://www.w3.org/1999/xlink" x="0px" y="0px"
	 viewBox="0 0 1500 1500" style="enable-background:new 0 0 1500 1500;" xml:space="preserve">
<style type="text/css">
	.st0{fill:#5AB9A5;}
	.st1{fill:#0054A7;}
</style>
<g>
	<path class="st0" d="M320.24,631.04l-44.81,123.1l-44.68-123.09c-1.58-4.37-5.73-7.27-10.38-7.27h-24.45
		c-4.64,0-8.78,2.9-10.37,7.26l-44.93,123.11l-44.8-123.1c-1.59-4.36-5.73-7.26-10.37-7.26H60.55c-4.79,0-8.12,4.76-6.48,9.26
		l63.95,175.71c1.59,4.36,5.73,7.26,10.37,7.26h24.45c4.64,0,8.79-2.9,10.37-7.26l44.8-123.1l44.8,123.1
		c1.59,4.36,5.73,7.26,10.37,7.26h24.45c4.64,0,8.79-2.9,10.37-7.26l63.95-175.71c1.64-4.5-1.69-9.26-6.48-9.26h-24.89
		C325.97,623.78,321.83,626.68,320.24,631.04z"/>
	<path class="st0" d="M514.34,806.75l-63.95-175.71c-1.59-4.36-5.73-7.26-10.37-7.26h-24.45c-4.64,0-8.79,2.9-10.37,7.26
		l-63.95,175.71c-1.64,4.5,1.69,9.26,6.48,9.26h24.89c4.64,0,8.79-2.9,10.37-7.26l6.43-17.66c0,0,0,0.01,0,0.01l38.38-105.44
		l38.38,105.44c0,0,0-0.01,0-0.01l6.43,17.66c1.59,4.36,5.73,7.26,10.37,7.26h24.89C512.65,816.01,515.98,811.25,514.34,806.75z"/>
	<path class="st0" d="M594.2,776.03V630.68c0-3.81-3.09-6.9-6.9-6.9h-25.46c-3.81,0-6.9,3.09-6.9,6.9v178.43
		c0,3.81,3.09,6.9,6.9,6.9h120.69c3.81,0,6.9-3.09,6.9-6.9v-19.27c0-3.81-3.09-6.9-6.9-6.9H601.1
		C597.29,782.93,594.2,779.84,594.2,776.03z"/>
	<path class="st0" d="M766.95,776.03V630.68c0-3.81-3.09-6.9-6.9-6.9h-25.46c-3.81,0-6.9,3.09-6.9,6.9v178.43
		c0,3.81,3.09,6.9,6.9,6.9h120.69c3.81,0,6.9-3.09,6.9-6.9v-19.27c0-3.81-3.09-6.9-6.9-6.9h-81.43
		C770.04,782.93,766.95,779.84,766.95,776.03z"/>
	<path class="st1" d="M1073.99,806.75l-63.95-175.71c-1.59-4.36-5.73-7.26-10.37-7.26h-24.45c-4.64,0-8.79,2.9-10.37,7.26
		l-63.95,175.71c-1.64,4.5,1.69,9.26,6.48,9.26h24.89c4.64,0,8.79-2.9,10.38-7.26l6.43-17.66c0,0,0,0.01,0,0.01l38.38-105.44
		l38.38,105.44c0,0,0-0.01,0-0.01l6.39,17.56c1.61,4.42,5.82,7.37,10.52,7.37h24.78C1072.3,816.01,1075.63,811.25,1073.99,806.75z"
		/>
	<path class="st1" d="M1445.98,630.69c0-3.81-3.09-6.9-6.9-6.9h-105.12v-0.01l-39.28,0c-3.81,0-6.9,3.09-6.9,6.9v19.29
		c0,3.81,3.09,6.9,6.9,6.9h45.35c3.81,0,6.9,3.09,6.9,6.9l-0.01,145.34c0,3.81,3.09,6.9,6.9,6.9h26.11c3.81,0,6.9-3.09,6.9-6.9
		l0.02-145.34c0-3.81,3.09-6.9,6.9-6.9h45.34c3.81,0,6.9-3.09,6.9-6.9V630.69z"/>
	<path class="st1" d="M1259.9,718.79c6.77-9.07,10.16-20.46,10.16-34.17c0-19.81-6.5-34.91-19.49-45.28s-30.73-15.56-53.18-15.56
		h-77.03c-3.81,0-6.9,3.09-6.9,6.9l-0.01,178.43c0,3.81,3.09,6.9,6.9,6.9h26.11c3.81,0,6.9-3.09,6.9-6.9l0.01-58.07
		c0-3.8,3.03-6.88,6.83-6.9c9.82-0.04,27.69-0.12,36.28-0.19c2.92-0.02,5.52,1.79,6.52,4.53l22.6,62.08
		c1.19,3.27,4.3,5.45,7.78,5.45h26.82c4.79,0,8.12-4.76,6.48-9.26l-26.1-71.71C1248.31,731.04,1254.77,725.66,1259.9,718.79z
		 M1153.37,661.51c0-3.81,3.09-6.9,6.9-6.9h36.28c11.51,0,20,2.64,25.47,7.92c5.47,5.28,8.22,12.55,8.22,21.81
		c0,9.27-2.79,16.44-8.36,21.54c-5.57,5.09-14.02,7.64-25.34,7.64h-36.28c-3.81,0-6.9-3.09-6.9-6.9L1153.37,661.51z"/>
	<path class="st1" d="M1310.57,875.34c-0.3,0-0.56-0.11-0.79-0.33c-0.23-0.23-0.33-0.49-0.33-0.79v-26.99c0-0.3,0.11-0.58,0.33-0.79
		c0.23-0.23,0.49-0.33,0.79-0.33h12.03c2.62,0,4.96,0.44,7.01,1.31c2.07,0.88,3.71,2.18,4.96,3.86c1.23,1.7,1.9,3.8,1.98,6.31
		c0.06,1.2,0.09,2.25,0.09,3.15c0,0.91-0.03,1.93-0.09,3.07c-0.11,2.62-0.75,4.79-1.92,6.5c-1.17,1.72-2.77,2.98-4.79,3.8
		c-2.01,0.82-4.37,1.23-7.03,1.23H1310.57z M1319.9,867.2h2.71c0.61,0,1.16-0.12,1.64-0.37c0.49-0.23,0.9-0.61,1.2-1.11
		c0.3-0.5,0.47-1.14,0.5-1.92c0.05-0.81,0.09-1.54,0.11-2.18c0-0.64,0-1.28,0-1.93c-0.02-0.65-0.06-1.37-0.11-2.11
		c-0.06-1.17-0.43-2.02-1.11-2.56c-0.68-0.52-1.51-0.79-2.45-0.79h-2.49V867.2z"/>
	<path class="st1" d="M1365.88,875.34c-0.3,0-0.56-0.11-0.79-0.33c-0.23-0.23-0.33-0.49-0.33-0.79v-26.99c0-0.3,0.11-0.58,0.33-0.79
		c0.23-0.23,0.49-0.33,0.79-0.33h13.87c2.68,0,4.85,0.32,6.56,0.97c1.7,0.65,2.95,1.63,3.77,2.94c0.82,1.29,1.23,2.91,1.23,4.85
		c0,0.9-0.18,1.7-0.56,2.4c-0.37,0.71-0.82,1.31-1.32,1.78c-0.52,0.47-1,0.82-1.45,1.05c1.05,0.44,1.98,1.22,2.77,2.31
		c0.81,1.1,1.2,2.34,1.2,3.74c0,2.08-0.47,3.8-1.38,5.16c-0.91,1.35-2.25,2.36-3.99,3.03c-1.75,0.67-3.88,1-6.42,1H1365.88z
		 M1375.2,857.08h3.5c0.61,0,1.05-0.2,1.32-0.61c0.26-0.4,0.4-0.82,0.4-1.28c0-0.44-0.14-0.87-0.4-1.29
		c-0.27-0.41-0.71-0.62-1.32-0.62h-3.5V857.08z M1375.2,868.16h3.88c0.7,0,1.19-0.23,1.48-0.7c0.3-0.46,0.44-0.91,0.44-1.35
		c0-0.5-0.15-0.96-0.47-1.4c-0.32-0.43-0.81-0.64-1.45-0.64h-3.88V868.16z"/>
	<path class="st1" d="M1432.91,875.75c-3.09,0-5.64-0.41-7.65-1.25c-1.99-0.84-3.5-1.93-4.5-3.3c-1-1.37-1.54-2.81-1.6-4.34
		c0-0.26,0.09-0.47,0.27-0.65c0.18-0.18,0.4-0.27,0.65-0.27h7.94c0.44,0,0.78,0.06,1.02,0.2c0.23,0.12,0.49,0.29,0.78,0.52
		c0.27,0.2,0.56,0.37,0.85,0.52c0.29,0.15,0.62,0.27,1,0.33c0.38,0.08,0.79,0.11,1.23,0.11c0.94,0,1.7-0.11,2.28-0.32
		c0.56-0.2,0.85-0.49,0.85-0.85c0-0.33-0.17-0.61-0.49-0.84c-0.32-0.21-0.87-0.43-1.64-0.61c-0.79-0.18-1.87-0.35-3.26-0.52
		c-2.21-0.3-4.11-0.82-5.74-1.55c-1.61-0.72-2.86-1.72-3.73-2.98c-0.88-1.26-1.32-2.81-1.32-4.66c0-1.9,0.53-3.56,1.61-5.02
		c1.06-1.45,2.56-2.57,4.47-3.38c1.9-0.81,4.12-1.22,6.66-1.22c2.08,0,3.94,0.27,5.55,0.82s2.98,1.25,4.09,2.13
		c1.11,0.88,1.96,1.81,2.54,2.81c0.59,1,0.9,1.96,0.93,2.89c0,0.24-0.09,0.46-0.27,0.64c-0.18,0.18-0.38,0.27-0.61,0.27h-8.35
		c-0.4,0-0.7-0.05-0.94-0.17c-0.23-0.11-0.47-0.27-0.73-0.5c-0.14-0.14-0.4-0.29-0.78-0.47c-0.37-0.18-0.85-0.27-1.43-0.27
		c-0.7,0-1.22,0.11-1.54,0.3c-0.32,0.21-0.47,0.5-0.47,0.87c0,0.24,0.12,0.49,0.38,0.7c0.24,0.23,0.7,0.43,1.37,0.59
		c0.67,0.17,1.63,0.33,2.89,0.5c2.78,0.33,5.02,0.87,6.69,1.61c1.69,0.73,2.92,1.72,3.68,2.94c0.76,1.23,1.16,2.74,1.16,4.55
		c0,2.04-0.61,3.79-1.83,5.26c-1.22,1.48-2.86,2.62-4.94,3.41C1437.91,875.35,1435.55,875.75,1432.91,875.75z"/>
	<path class="st1" d="M53.76,875.34h1228.37c0.06,0,0.12-0.05,0.12-0.12v-29.01c0-0.06-0.05-0.12-0.12-0.12H53.76
		c-0.06,0-0.12,0.05-0.12,0.12v29.01C53.65,875.29,53.7,875.34,53.76,875.34z"/>
</g>
</svg>
