<svg width="601" height="81" viewBox="0 0 601 81" fill="none" xmlns="http://www.w3.org/2000/svg">
<path d="M114.878 2.65181L95.5751 41.8288L76.3279 2.655C75.6473 1.26423 73.8596 0.341309 71.8564 0.341309H61.3239C59.3251 0.341309 57.5417 1.26423 56.8567 2.65181L37.5018 41.832L18.2029 2.655C17.518 1.26741 15.7345 0.344475 13.7357 0.344475H3.00934C0.945907 0.344475 -0.488587 1.85936 0.217891 3.2915L27.7662 59.2118C28.4511 60.5994 30.2346 61.5223 32.2334 61.5223H42.7659C44.7647 61.5223 46.5525 60.5994 47.2331 59.2118L66.532 20.0348L85.8309 59.2118C86.5158 60.5994 88.2993 61.5223 90.2981 61.5223H100.831C102.829 61.5223 104.617 60.5994 105.298 59.2118L132.846 3.2915C133.553 1.85936 132.118 0.344475 130.055 0.344475H119.333C117.347 0.341292 115.563 1.26423 114.878 2.65181Z" fill="#5AB9A5"/>
<path d="M198.489 58.5721L170.941 2.65181C170.256 1.26423 168.473 0.341309 166.474 0.341309H155.942C153.943 0.341309 152.155 1.26423 151.475 2.65181L123.927 58.5721C123.22 60.0043 124.655 61.5192 126.718 61.5192H137.44C139.439 61.5192 141.226 60.5962 141.907 59.2086L144.677 53.5883V53.5915L161.21 20.0348L177.743 53.5915V53.5883L180.513 59.2086C181.198 60.5962 182.982 61.5192 184.98 61.5192H195.702C197.761 61.5192 199.196 60.0043 198.489 58.5721Z" fill="#5AB9A5"/>
<path d="M232.892 48.7954V2.53725C232.892 1.3247 231.561 0.341309 229.92 0.341309H218.952C217.311 0.341309 215.98 1.3247 215.98 2.53725V59.3232C215.98 60.5358 217.311 61.5192 218.952 61.5192H270.942C272.584 61.5192 273.915 60.5358 273.915 59.3232V53.1905C273.915 51.9779 272.584 50.9945 270.942 50.9945H235.864C234.223 50.9913 232.892 50.0079 232.892 48.7954Z" fill="#5AB9A5"/>
<path d="M307.309 48.7954V2.53725C307.309 1.3247 305.977 0.341309 304.336 0.341309H293.368C291.727 0.341309 290.396 1.3247 290.396 2.53725V59.3232C290.396 60.5358 291.727 61.5192 293.368 61.5192H345.36C347.001 61.5192 348.332 60.5358 348.332 59.3232V53.1905C348.332 51.9779 347.001 50.9945 345.36 50.9945H310.281C308.64 50.9913 307.309 50.0079 307.309 48.7954Z" fill="#5AB9A5"/>
<path d="M439.574 58.5721L412.026 2.65181C411.341 1.26423 409.557 0.341309 407.558 0.341309H397.026C395.027 0.341309 393.239 1.26423 392.559 2.65181L365.01 58.5721C364.304 60.0043 365.738 61.5192 367.802 61.5192H378.524C380.523 61.5192 382.31 60.5962 382.995 59.2086L385.765 53.5883V53.5915L402.299 20.0348L418.832 53.5915V53.5883L421.585 59.1768C422.278 60.5835 424.092 61.5223 426.116 61.5223H436.791C438.846 61.5192 440.28 60.0043 439.574 58.5721Z" fill="#0054A7"/>
<path d="M599.821 2.54043C599.821 1.32789 598.49 0.344475 596.849 0.344475H551.565V0.341309H534.644C533.003 0.341309 531.672 1.3247 531.672 2.53725V8.67635C531.672 9.88889 533.003 10.8723 534.644 10.8723H554.18C555.821 10.8723 557.152 11.8557 557.152 13.0683L557.148 59.3232C557.148 60.5358 558.479 61.5192 560.12 61.5192H571.368C573.009 61.5192 574.34 60.5358 574.34 59.3232L574.349 13.0683C574.349 11.8557 575.68 10.8723 577.321 10.8723H596.853C598.494 10.8723 599.825 9.88889 599.825 8.67635V2.54043H599.821Z" fill="#0054A7"/>
<path d="M519.662 30.5786C522.578 27.692 524.038 24.0671 524.038 19.7038C524.038 13.3992 521.238 8.59362 515.642 5.29333C510.047 1.99304 502.404 0.341309 492.733 0.341309H459.55C457.909 0.341309 456.577 1.3247 456.577 2.53725L456.573 59.3232C456.573 60.5358 457.904 61.5192 459.546 61.5192H470.793C472.435 61.5192 473.766 60.5358 473.766 59.3232L473.77 40.8422C473.77 39.6329 475.075 38.6527 476.712 38.6463C480.943 38.6336 488.641 38.6081 492.341 38.5858C493.599 38.5795 494.719 39.1555 495.15 40.0275L504.886 59.7847C505.398 60.8254 506.738 61.5192 508.237 61.5192H519.791C521.854 61.5192 523.289 60.0043 522.582 58.5721L511.339 35.7502C514.669 34.4772 517.452 32.765 519.662 30.5786ZM473.77 12.349C473.77 11.1365 475.101 10.153 476.743 10.153H492.371C497.33 10.153 500.987 10.9933 503.344 12.6736C505.7 14.354 506.885 16.6677 506.885 19.6147C506.885 22.5649 505.683 24.8468 503.283 26.4699C500.884 28.0898 497.244 28.9014 492.367 28.9014H476.738C475.097 28.9014 473.766 27.918 473.766 26.7054L473.77 12.349Z" fill="#0054A7"/>
<path d="M541.487 80.401C541.358 80.401 541.246 80.366 541.147 80.296C541.048 80.2228 541.005 80.14 541.005 80.0445V71.4548C541.005 71.3594 541.052 71.2703 541.147 71.2034C541.246 71.1302 541.358 71.0984 541.487 71.0984H546.67C547.799 71.0984 548.807 71.2384 549.69 71.5153C550.582 71.7954 551.289 72.2091 551.827 72.7438C552.357 73.2848 552.646 73.9532 552.68 74.752C552.706 75.1339 552.719 75.468 552.719 75.7545C552.719 76.0441 552.706 76.3687 552.68 76.7315C552.633 77.5653 552.357 78.2559 551.853 78.8002C551.349 79.3476 550.66 79.7486 549.789 80.0095C548.923 80.2705 547.907 80.401 546.761 80.401H541.487V80.401ZM545.507 77.8104H546.674C546.937 77.8104 547.174 77.7722 547.381 77.6926C547.592 77.6194 547.769 77.4985 547.898 77.3394C548.027 77.1802 548.1 76.9766 548.113 76.7283C548.135 76.4705 548.152 76.2382 548.161 76.0345C548.161 75.8308 548.161 75.6272 548.161 75.4203C548.152 75.2134 548.135 74.9843 548.113 74.7488C548.088 74.3764 547.928 74.1059 547.635 73.9341C547.342 73.7686 546.985 73.6826 546.58 73.6826H545.507V77.8104V77.8104Z" fill="#0054A7"/>
<path d="M565.312 80.401C565.182 80.401 565.07 80.366 564.971 80.296C564.872 80.2228 564.829 80.14 564.829 80.0445V71.4548C564.829 71.3594 564.876 71.2703 564.971 71.2034C565.07 71.1302 565.182 71.0984 565.312 71.0984H571.287C572.442 71.0984 573.377 71.2002 574.114 71.4071C574.846 71.614 575.385 71.9259 575.738 72.3428C576.091 72.7533 576.268 73.2689 576.268 73.8863C576.268 74.1727 576.19 74.4273 576.027 74.6501C575.867 74.8761 575.673 75.067 575.458 75.2166C575.234 75.3662 575.027 75.4776 574.833 75.5508C575.286 75.6908 575.686 75.939 576.027 76.2859C576.376 76.636 576.544 77.0307 576.544 77.4762C576.544 78.1382 576.341 78.6856 575.949 79.1184C575.557 79.5481 574.98 79.8695 574.23 80.0827C573.476 80.296 572.558 80.401 571.464 80.401H565.312V80.401ZM569.327 74.5897H570.835C571.098 74.5897 571.287 74.526 571.404 74.3955C571.516 74.2682 571.576 74.1345 571.576 73.9882C571.576 73.8481 571.516 73.7113 571.404 73.5776C571.287 73.4471 571.098 73.3803 570.835 73.3803H569.327V74.5897ZM569.327 78.1159H570.999C571.3 78.1159 571.511 78.0427 571.636 77.8931C571.766 77.7467 571.826 77.6035 571.826 77.4635C571.826 77.3044 571.761 77.158 571.623 77.0179C571.486 76.8811 571.274 76.8143 570.999 76.8143H569.327V78.1159Z" fill="#0054A7"/>
<path d="M594.191 80.5313C592.86 80.5313 591.761 80.4008 590.896 80.1335C590.038 79.8662 589.388 79.5193 588.957 79.0833C588.526 78.6473 588.294 78.189 588.268 77.702C588.268 77.6193 588.307 77.5525 588.384 77.4952C588.462 77.4379 588.557 77.4092 588.664 77.4092H592.084C592.274 77.4092 592.42 77.4283 592.524 77.4729C592.623 77.5111 592.735 77.5652 592.86 77.6384C592.976 77.702 593.101 77.7561 593.226 77.8039C593.351 77.8516 593.493 77.8898 593.657 77.9089C593.82 77.9344 593.997 77.9439 594.186 77.9439C594.591 77.9439 594.919 77.9089 595.169 77.8421C595.41 77.7784 595.535 77.6861 595.535 77.5716C595.535 77.4665 595.461 77.3774 595.324 77.3042C595.186 77.2374 594.949 77.1674 594.617 77.1101C594.277 77.0528 593.812 76.9987 593.213 76.9446C592.261 76.8491 591.443 76.6836 590.741 76.4513C590.047 76.2222 589.509 75.9039 589.134 75.5029C588.755 75.1019 588.565 74.6086 588.565 74.0198C588.565 73.4152 588.794 72.8869 589.259 72.4222C589.715 71.9608 590.361 71.6043 591.184 71.3465C592.003 71.0887 592.959 70.9583 594.053 70.9583C594.949 70.9583 595.75 71.0442 596.443 71.2192C597.137 71.3943 597.727 71.617 598.205 71.8971C598.683 72.1772 599.049 72.4731 599.299 72.7914C599.553 73.1096 599.687 73.4152 599.7 73.7111C599.7 73.7875 599.661 73.8575 599.584 73.9148C599.506 73.9721 599.42 74.0007 599.321 74.0007H595.724C595.552 74.0007 595.423 73.9848 595.319 73.9467C595.22 73.9116 595.117 73.8607 595.005 73.7875C594.945 73.743 594.833 73.6952 594.669 73.638C594.509 73.5807 594.303 73.552 594.053 73.552C593.751 73.552 593.527 73.587 593.39 73.6475C593.252 73.7143 593.187 73.8066 593.187 73.9244C593.187 74.0008 593.239 74.0803 593.351 74.1472C593.454 74.2204 593.652 74.284 593.941 74.3349C594.229 74.389 594.643 74.44 595.186 74.4941C596.383 74.5991 597.348 74.7709 598.067 75.0064C598.795 75.2388 599.325 75.5538 599.652 75.9421C599.98 76.3336 600.152 76.8141 600.152 77.3901C600.152 78.0394 599.889 78.5963 599.364 79.0642C598.838 79.5352 598.132 79.898 597.236 80.1494C596.344 80.404 595.328 80.5313 594.191 80.5313Z" fill="#0054A7"/>
<path d="M0.0836754 80.4014H529.239C529.265 80.4014 529.29 80.3854 529.29 80.3632V71.1307C529.29 71.1116 529.269 71.0925 529.239 71.0925H0.0836754C0.0578287 71.0925 0.0319824 71.1084 0.0319824 71.1307V80.3632C0.0362902 80.3854 0.0578287 80.4014 0.0836754 80.4014Z" fill="#0054A7"/>
</svg>
